<svg width="293" height="164" viewBox="0 0 293 164" fill="none" xmlns="http://www.w3.org/2000/svg">
  <path d="M8.32875 55.7126C4.13802 69.7934 5.56464 84.8042 5.56464 99.4009C5.56464 106.491 6.00539 113.508 6.25567 120.516C6.68665 132.583 5.56464 144.62 5.56464 156.603" stroke="#5BB0A1" stroke-width="4" stroke-linecap="round"/>
  <path d="M3.14601 40.51C4.82085 43.8597 9.14744 42.5831 12.4749 42.5831C15.4235 42.5831 20.5363 40.5026 21.9957 37.7459C24.3734 33.2547 18.8948 28.9679 15.6229 28.0331C11.6585 26.9004 5.54944 26.6012 3.14601 30.874C1.53699 33.7345 1.70121 37.6204 3.14601 40.51Z" stroke="#5BB0A1" stroke-width="4" stroke-linecap="round"/>
  <path d="M46.3353 43.9651C46.3353 52.4241 45.3362 61.5805 46.6808 69.9171C48.1118 78.7895 47.2999 87.9561 48.5619 96.7904C49.9058 106.198 49.0994 116.04 49.0994 125.545C49.0994 133.389 49.0994 141.234 49.0994 149.078C49.0994 151.512 47.7373 159.694 49.6368 161.593C50.0043 161.961 49.7904 161.376 49.7904 160.941C49.7904 158.317 49.7904 155.694 49.7904 153.071C49.7904 145.369 49.5122 137.79 49.1378 130.113C48.7849 122.88 49.0994 115.552 49.0994 108.308C49.0994 100.961 49.8844 94.0717 50.443 86.8089C50.7666 82.6025 50.268 76.9237 52.0171 72.9883C53.6181 69.3861 55.4412 65.6523 57.3917 62.239C59.4176 58.6937 60.0916 59.1678 64.302 59.1678C66.5037 59.1678 69.6003 62.6728 70.9051 64.3505C74.1003 68.4585 74.4438 73.7035 76.203 78.4398C79.6474 87.7132 81.323 97.6317 84.9944 106.81C87.197 112.317 89.6678 117.537 91.9431 122.973C93.9521 127.772 95.798 131.751 96.7803 136.908C97.2646 139.451 99.5444 146.752 99.5444 144.164" stroke="#D6A119" stroke-width="4" stroke-linecap="round"/>
  <path d="M141.006 64.0049C134.807 64.0049 127.739 61.3678 123.73 67.8824C119.349 75.0015 118.202 81.2159 118.202 89.573C118.202 94.543 118.009 100.004 119.93 104.699C121.28 107.999 123.728 110.597 125.803 113.413C129.215 118.043 136.548 120.33 142.004 121.322C145.401 121.94 148.387 116.6 149.951 114.45C152.636 110.759 152.769 105.994 153.79 101.704C154.963 96.7772 154.136 90.9051 154.136 85.8491C154.136 78.4185 154.166 71.0967 153.445 63.6978C152.748 56.5546 151.985 49.3317 151.026 42.2376C150.327 37.0638 150.284 31.7743 148.915 26.6894C146.689 18.4228 145.692 8.87878 140.315 2.15794C139.378 0.987205 138.485 6.69269 138.396 7.18709C137.818 10.3634 138.242 13.943 138.242 17.1686C138.242 23.5138 137.551 29.6587 137.551 35.9799C137.551 41.5231 136.882 47.4969 138.396 52.7949C139.866 57.9416 141.801 62.7113 143.617 67.6136C147.7 78.6388 153.225 90.9244 161.199 99.7848C163.511 102.353 165.29 105.532 167.265 108.384C169.154 111.112 172.088 114.421 173.484 117.214" stroke="#CC9F9F" stroke-width="4" stroke-linecap="round"/>
  <path d="M190.76 76.4435C198.743 77.5638 205.944 83.2963 213.103 76.1363C217.934 71.3054 215.233 62.9094 211.146 58.8223C207.206 54.8823 202.173 50.3258 197.325 55.7126C194.08 59.3181 190.069 64.8044 190.069 69.8787C190.069 74.047 189.378 78.1189 189.378 82.3172C189.378 85.05 190.657 87.5357 190.76 90.1105C190.863 92.6731 192.658 95.5735 194.215 97.5198C195.6 99.2501 198.526 99.8506 199.744 101.474C202.632 105.325 208.014 106.684 212.182 108.768C216.26 110.807 220.747 111.686 225.312 111.686" stroke="#AECB70" stroke-width="4" stroke-linecap="round"/>
  <path d="M282.667 52.2575C279.696 52.2575 275.002 51.3653 272.301 52.7949C269.895 54.0692 268.549 56.9434 267.119 59.1678C263.652 64.5605 262.012 71.3552 261.091 77.5952C260.477 81.763 260.313 86.7795 258.481 90.6479C257.245 93.2574 256.587 95.7922 255.678 98.518C255.019 100.496 253.438 102.421 252.991 104.43C252.556 106.388 250.495 107.471 249.536 109.229C247.908 112.213 245.341 115.155 243.278 117.905" stroke="#926851" stroke-width="4" stroke-linecap="round"/>
  <path d="M241.205 56.4036C248.8 56.4036 252.305 59.0205 257.252 64.1585C261.9 68.985 265.894 77.3234 268.117 83.6224C269.845 88.5192 273.281 91.9342 276.793 95.4467C278.434 97.0876 280.473 98.2793 282.129 99.7848C284.084 101.562 289.174 102.587 290.268 104.776" stroke="#926851" stroke-width="4" stroke-linecap="round"/>
</svg>
